<?xml version="1.0" encoding="utf-8"?>
<!-- Generator: Adobe Illustrator 19.0.0, SVG Export Plug-In . SVG Version: 6.00 Build 0)  -->
<svg version="1.1" id="Layer_1" xmlns="http://www.w3.org/2000/svg" xmlns:xlink="http://www.w3.org/1999/xlink" x="0px" y="0px"
	 viewBox="0 0 58 51.4" style="enable-background:new 0 0 58 51.4;" xml:space="preserve">
<style type="text/css">
	.st0{fill:#FFFFFF;}
</style>
<g id="XMLID_4990_">
	<path id="XMLID_4991_" class="st0" d="M9,8V2.4C9,1.1,9.7,0,11,0s2,1.1,2,2.4V8c0,1.3-0.7,2.4-2,2.4S9,9.3,9,8L9,8z M34.5,10.4
		c1.3,0,2.5-1.1,2.5-2.4V2.4C37,1.1,35.8,0,34.5,0C33.2,0,32,1.1,32,2.4V8C32,9.3,33.2,10.4,34.5,10.4L34.5,10.4z M48.6,36.5H46
		v-5.3c0-0.9-0.6-1.6-1.5-1.6c-0.9,0-1.5,0.7-1.5,1.6v7.2c0,0.9,0.8,1.1,1.6,1.1h4c0.9,0,1.6-0.6,1.6-1.5
		C50.2,37.2,49.5,36.5,48.6,36.5L48.6,36.5z M58,38c0,7.5-6,13.4-13.5,13.4c-5.4,0-9.9-2.8-12.1-7.8H3.8C1.6,43.5,0,42.2,0,40V10.4
		c0-2.2,1.6-3.9,3.8-3.9H7V8c0,2.2,1.8,4,4,4c2.2,0,4-1.8,4-4V6.5h15V8c0,2.2,1.8,4,4,4c2.2,0,4-1.8,4-4V6.5h3.4
		c2.2,0,3.6,1.6,3.6,3.9v14C53,24.9,58,30.8,58,38L58,38z M30,17.5H17v4h8.5c-1.8,2-3.3,4.4-4.4,7c-1.1,2.6-1.8,5-2,8h4.1
		c0-1,0.2-2.5,0.4-4c0.3-1.5,0.7-2.9,1.2-4.3c0.5-1.4,1.4-2.8,2.2-4C27.9,23,29,22,30,21.1V17.5z M55,38c0-5.7-4.7-10.4-10.4-10.4
		c-5.7,0-10.4,4.7-10.4,10.4c0,5.7,4.7,10.4,10.4,10.4C50.4,48.4,55,43.7,55,38L55,38z"/>
</g>
</svg>
