<?xml version="1.0" encoding="utf-8"?>
<!-- Generator: Adobe Illustrator 19.0.0, SVG Export Plug-In . SVG Version: 6.00 Build 0)  -->
<svg version="1.1" id="Layer_1" xmlns="http://www.w3.org/2000/svg" xmlns:xlink="http://www.w3.org/1999/xlink" x="0px" y="0px"
	 viewBox="0 0 52.8 53.3" style="enable-background:new 0 0 52.8 53.3;" xml:space="preserve">
<style type="text/css">
	.st0{fill:#FFFFFF;}
</style>
<path id="XMLID_5011_" class="st0" d="M36.8,10.4c0,5.7-4.7,10.4-10.4,10.4c-5.7,0-10.4-4.7-10.4-10.4C16,4.7,20.7,0,26.4,0
	C32.1,0,36.8,4.7,36.8,10.4L36.8,10.4z M26.4,28c0.6,0,1.4,0,1.9-0.5c0.5-0.5,1.3-1.8,1.3-2.7c0-1.1-2-1.3-3.2-1.3
	c-1.2,0-3.2,0.2-3.2,1.3c0,1,0.8,2.2,1.3,2.7C25,28,25.8,28,26.4,28L26.4,28z M52.8,53.3H44l-2.8-12l-0.8,12h-28l-0.8-12l-2.8,12H0
	l5-22.6c0.6-2.6,2.7-4.6,5.3-5l9.2-1.4L24.2,35l0.5-5.4c0-0.2,0.2-0.3,0.3-0.3h2.6c0.2,0,0.3,0.2,0.3,0.3l0.6,5.2l4.6-10.5l9.2,1.4
	c2.6,0.4,4.7,2.4,5.3,5L52.8,53.3z M38.4,38.3l-1.6-3.2L32,38.3H38.4z"/>
</svg>
