<?xml version="1.0" encoding="utf-8"?>
<!-- Generator: Adobe Illustrator 19.0.0, SVG Export Plug-In . SVG Version: 6.00 Build 0)  -->
<svg version="1.1" id="Layer_1" xmlns="http://www.w3.org/2000/svg" xmlns:xlink="http://www.w3.org/1999/xlink" x="0px" y="0px"
	 viewBox="0 0 50 44" style="enable-background:new 0 0 50 44;" xml:space="preserve">
<style type="text/css">
	.st0{clip-path:url(#XMLID_41_);fill:#FFFFFF;}
</style>
<g id="XMLID_5028_">
	<g id="XMLID_5030_">
		<defs>
			<rect id="XMLID_5032_" x="2" width="48" height="44"/>
		</defs>
		<clipPath id="XMLID_41_">
			<use xlink:href="#XMLID_5032_"  style="overflow:visible;"/>
		</clipPath>
		<path id="XMLID_5033_" class="st0" d="M44.7,22c0.4,0,0.8,0.5,0.8,0.9c-0.4,11.8-10.1,21.2-22,21.2c-13,0-23.4-11.3-21.8-24.6
			C2.9,9.4,11.2,1.3,21.4,0.3c4.9-0.5,9.4,0.7,13.3,2.9C35,3.5,35.1,4,34.9,4.3l-9.8,15.3c-0.7,1.1,0.1,2.4,1.4,2.4H44.7z M38.1,2.8
			L27.5,19.6c-0.3,0.5,0,1.4,0.7,1.4h19.7c0.4,0,0.8-0.6,0.8-1c-0.3-7.2-4-13.6-9.5-17.4C38.9,2.4,38.3,2.4,38.1,2.8L38.1,2.8z"/>
	</g>
</g>
</svg>
