<?xml version="1.0" encoding="utf-8"?>
<!-- Generator: Adobe Illustrator 19.0.0, SVG Export Plug-In . SVG Version: 6.00 Build 0)  -->
<svg version="1.1" id="Layer_1" xmlns="http://www.w3.org/2000/svg" xmlns:xlink="http://www.w3.org/1999/xlink" x="0px" y="0px"
	 viewBox="-280 375 50 44" style="enable-background:new -280 375 50 44;" xml:space="preserve">
<style type="text/css">
	.st0{clip-path:url(#SVGID_2_);fill:#323A45;}
</style>
<g id="XMLID_5028_">
	<g id="XMLID_5030_">
		<g>
			<defs>
				<rect id="SVGID_1_" x="-280" y="375" width="50" height="44"/>
			</defs>
			<clipPath id="SVGID_2_">
				<use xlink:href="#SVGID_1_"  style="overflow:visible;"/>
			</clipPath>
			<path id="XMLID_5033_" class="st0" d="M-235.3,397c0.4,0,0.8,0.5,0.8,0.9c-0.4,11.8-10.1,21.2-22,21.2c-13,0-23.4-11.3-21.8-24.6
				c1.2-10.1,9.5-18.2,19.7-19.2c4.9-0.5,9.4,0.7,13.3,2.9c0.3,0.3,0.4,0.8,0.2,1.1l-9.8,15.3c-0.7,1.1,0.1,2.4,1.4,2.4H-235.3z
				 M-241.9,377.8l-10.6,16.8c-0.3,0.5,0,1.4,0.7,1.4h19.7c0.4,0,0.8-0.6,0.8-1c-0.3-7.2-4-13.6-9.5-17.4
				C-241.1,377.4-241.7,377.4-241.9,377.8L-241.9,377.8z"/>
		</g>
	</g>
</g>
</svg>
