<?xml version="1.0" encoding="UTF-8" standalone="no"?>
<svg width="51px" height="53px" viewBox="0 0 51 53" version="1.1" xmlns="http://www.w3.org/2000/svg" xmlns:xlink="http://www.w3.org/1999/xlink" xmlns:sketch="http://www.bohemiancoding.com/sketch/ns">
    <!-- Generator: Sketch 3.5.2 (25235) - http://www.bohemiancoding.com/sketch -->
    <title>increase-w</title>
    <desc>Created with Sketch.</desc>
    <defs></defs>
    <g id="Page-1" stroke="none" stroke-width="1" fill="none" fill-rule="evenodd" sketch:type="MSPage">
        <g id="increase" sketch:type="MSLayerGroup" fill="#FFFFFF">
            <g id="Layer_1" sketch:type="MSShapeGroup">
                <g id="XMLID_5000_">
                    <g id="XMLID_5003_">
                        <path d="M10.8,53 L0.4,53 C0,53 0,52.7 0,52.3 L0,37.9 C0,37.4 0,37 0.4,37 L10.8,37 C11.2,37 12,37.4 12,37.9 L12,52.3 C12,52.7 11.2,53 10.8,53 L10.8,53 L10.8,53 Z M30,52.3 L30,26.7 C30,26.3 29.6,26 29.2,26 L18.8,26 C18.4,26 18,26.2 18,26.7 L18,52.3 C18,52.7 18.4,53 18.8,53 L29.2,53 C29.6,53 30,52.7 30,52.3 L30,52.3 L30,52.3 Z M50.2,14.9 L42.2,1.2 C41.8,0.5 41.2,0.6 40.8,1.2 L33,14.9 C32.6,15.6 32.9,16 33.7,16 L36,16 L36,52.3 C36,52.7 36.8,53 37.2,53 L46,53 C46.4,53 47,52.7 47,52.3 L47,16 L49.6,16 C50.3,16 50.6,15.6 50.2,14.9 L50.2,14.9 L50.2,14.9 Z" id="XMLID_5005_"></path>
                    </g>
                </g>
            </g>
        </g>
    </g>
</svg>