<?xml version="1.0" encoding="UTF-8" standalone="no"?>
<svg width="58px" height="52px" viewBox="0 0 58 52" version="1.1" xmlns="http://www.w3.org/2000/svg" xmlns:xlink="http://www.w3.org/1999/xlink" xmlns:sketch="http://www.bohemiancoding.com/sketch/ns">
    <!-- Generator: Sketch 3.5.2 (25235) - http://www.bohemiancoding.com/sketch -->
    <title>7x24-w</title>
    <desc>Created with Sketch.</desc>
    <defs></defs>
    <g id="Page-1" stroke="none" stroke-width="1" fill="none" fill-rule="evenodd" sketch:type="MSPage">
        <g id="7x24" sketch:type="MSLayerGroup" fill="#FFFFFF">
            <g id="Layer_1" sketch:type="MSShapeGroup">
                <g id="XMLID_4990_">
                    <path d="M9,8.6 L9,3 C9,1.7 9.7,0.6 11,0.6 C12.3,0.6 13,1.7 13,3 L13,8.6 C13,9.9 12.3,11 11,11 C9.7,11 9,9.9 9,8.6 L9,8.6 L9,8.6 Z M34.5,11 C35.8,11 37,9.9 37,8.6 L37,3 C37,1.7 35.8,0.6 34.5,0.6 C33.2,0.6 32,1.7 32,3 L32,8.6 C32,9.9 33.2,11 34.5,11 L34.5,11 L34.5,11 Z M48.6,37.1 L46,37.1 L46,31.8 C46,30.9 45.4,30.2 44.5,30.2 C43.6,30.2 43,30.9 43,31.8 L43,39 C43,39.9 43.8,40.1 44.6,40.1 L48.6,40.1 C49.5,40.1 50.2,39.5 50.2,38.6 C50.2,37.8 49.5,37.1 48.6,37.1 L48.6,37.1 L48.6,37.1 Z M58,38.6 C58,46.1 52,52 44.5,52 C39.1,52 34.6,49.2 32.4,44.2 L3.8,44.2 C1.6,44.1 0,42.8 0,40.6 L0,11 C0,8.8 1.6,7.1 3.8,7.1 L7,7.1 L7,8.6 C7,10.8 8.8,12.6 11,12.6 C13.2,12.6 15,10.8 15,8.6 L15,7.1 L30,7.1 L30,8.6 C30,10.8 31.8,12.6 34,12.6 C36.2,12.6 38,10.8 38,8.6 L38,7.1 L41.4,7.1 C43.6,7.1 45,8.7 45,11 L45,25 C53,25.5 58,31.4 58,38.6 L58,38.6 L58,38.6 Z M30,18.1 L17,18.1 L17,22.1 L25.5,22.1 C23.7,24.1 22.2,26.5 21.1,29.1 C20,31.7 19.3,34.1 19.1,37.1 L23.2,37.1 C23.2,36.1 23.4,34.6 23.6,33.1 C23.9,31.6 24.3,30.2 24.8,28.8 C25.3,27.4 26.2,26 27,24.8 C27.9,23.6 29,22.6 30,21.7 L30,18.1 L30,18.1 Z M55,38.6 C55,32.9 50.3,28.2 44.6,28.2 C38.9,28.2 34.2,32.9 34.2,38.6 C34.2,44.3 38.9,49 44.6,49 C50.4,49 55,44.3 55,38.6 L55,38.6 L55,38.6 Z" id="XMLID_4991_"></path>
                </g>
            </g>
        </g>
    </g>
</svg>