<?xml version="1.0" encoding="UTF-8" standalone="no"?>
<svg width="125px" height="96px" viewBox="0 0 125 96" version="1.1" xmlns="http://www.w3.org/2000/svg" xmlns:xlink="http://www.w3.org/1999/xlink" xmlns:sketch="http://www.bohemiancoding.com/sketch/ns">
    <!-- Generator: Sketch 3.5.2 (25235) - http://www.bohemiancoding.com/sketch -->
    <title>careerfair</title>
    <desc>Created with Sketch.</desc>
    <defs></defs>
    <g id="Page-1" stroke="none" stroke-width="1" fill="none" fill-rule="evenodd" sketch:type="MSPage">
        <g id="Group-2" sketch:type="MSLayerGroup" fill="#323A45">
            <path d="M62.710443,34.9059355 C64.7563291,34.9059355 66.7088608,35.3327097 68.4762658,36.1040645 C68.6123418,33.2146452 69.6075949,30.5401935 71.2088608,28.324129 C70.0838608,28.0901935 68.9224684,27.9669032 67.7357595,27.9669032 L56.4620253,27.9669032 C55.2753165,27.9669032 54.1123418,28.0901935 52.9936709,28.324129 C54.6993671,30.6824516 55.7136076,33.567129 55.7325949,36.6904839 C57.8022152,35.554 60.181962,34.9059355 62.710443,34.9059355 L62.710443,34.9059355 Z" id="Fill-1" sketch:type="MSShapeGroup"></path>
            <path d="M75.3813291,13.7900968 C75.3813291,21.1195484 69.4287975,27.0580323 62.0917722,27.0580323 C54.7547468,27.0580323 48.8101266,21.1195484 48.8101266,13.7900968 C48.8101266,6.45432258 54.7547468,0.514258065 62.0917722,0.514258065 C69.4287975,0.514258065 75.3813291,6.45432258 75.3813291,13.7900968 L75.3813291,13.7900968 Z" id="Fill-2" sketch:type="MSShapeGroup"></path>
            <path d="M82.9588608,49.7055161 C89.7199367,49.7055161 95.2025316,44.2364839 95.2025316,37.4808065 C95.2025316,30.7267097 89.7199367,25.2497742 82.9588608,25.2497742 C76.2642405,25.2497742 70.8322785,30.627129 70.7262658,37.295871 C74.5901899,39.7095161 77.2974684,43.8033871 77.7911392,48.5516452 C79.3607595,49.2866452 81.1107595,49.7055161 82.9588608,49.7055161 L82.9588608,49.7055161 Z" id="Fill-3" sketch:type="MSShapeGroup"></path>
            <path d="M41.2325949,25.2497742 C34.4636076,25.2497742 28.9873418,30.7267097 28.9873418,37.4808065 C28.9873418,44.2301613 34.4636076,49.7055161 41.2325949,49.7055161 C43.6234177,49.7055161 45.8496835,49.0084516 47.7405063,47.8166452 C48.3401899,43.9092903 50.4351266,40.4935161 53.4335443,38.1668065 C53.4446203,37.9376129 53.4699367,37.71 53.4699367,37.4808065 C53.4699367,30.7267097 47.9873418,25.2497742 41.2325949,25.2497742 L41.2325949,25.2497742 Z" id="Fill-4" sketch:type="MSShapeGroup"></path>
            <path d="M90.9129747,24.9905484 C94.7705696,27.4041935 97.4762658,31.4980645 97.971519,36.2463226 C99.5411392,36.9813226 101.291139,37.4001935 103.14557,37.4001935 C109.906646,37.4001935 115.382911,31.9295806 115.382911,25.1754839 C115.382911,18.4213871 109.906646,12.9507742 103.14557,12.9507742 C96.4446203,12.9444516 91.0126582,18.3218065 90.9129747,24.9905484 L90.9129747,24.9905484 Z" id="Fill-5" sketch:type="MSShapeGroup"></path>
            <path d="M74.9541139,50.1006774 C74.9541139,56.8563548 69.471519,62.3332903 62.710443,62.3332903 C55.9477848,62.3332903 50.4667722,56.8563548 50.4667722,50.1006774 C50.4667722,43.3465806 55.9477848,37.8759677 62.710443,37.8759677 C69.471519,37.8759677 74.9541139,43.3465806 74.9541139,50.1006774 L74.9541139,50.1006774 Z" id="Fill-6" sketch:type="MSShapeGroup"></path>
            <path d="M88.1566456,50.5400968 L77.846519,50.5400968 C77.7357595,54.6576774 75.9746835,58.3690323 73.193038,61.0355806 C80.8686709,63.3211935 86.4936709,70.4340968 86.4936709,78.843129 L86.4936709,82.7520645 C96.6677215,82.3806129 102.533228,79.4975161 102.922468,79.2999355 L103.737342,78.8858065 L103.824367,78.8858065 L103.824367,66.1979677 C103.824367,57.5660645 96.7974684,50.5400968 88.1566456,50.5400968 L88.1566456,50.5400968 Z" id="Fill-7" sketch:type="MSShapeGroup"></path>
            <path d="M108.337025,38.2347742 L98.0268987,38.2347742 C97.9161392,42.3586774 96.1550633,46.0700323 93.3734177,48.7302581 C101.05538,51.015871 106.674051,58.1350968 106.674051,66.5378065 L106.674051,70.4467419 C116.85443,70.0752903 122.719937,67.1985161 123.102848,67.0009355 L123.924051,66.5868065 L124.011076,66.5868065 L124.011076,53.8926452 C124.011076,45.2607419 116.977848,38.2347742 108.337025,38.2347742 L108.337025,38.2347742 Z" id="Fill-8" sketch:type="MSShapeGroup"></path>
            <path d="M52.221519,61.0355806 C49.4525316,58.3816774 47.6977848,54.6956129 47.5664557,50.6017419 C47.1898734,50.570129 46.806962,50.5400968 46.4177215,50.5400968 L36.0332278,50.5400968 C27.3924051,50.5400968 20.3591772,57.5660645 20.3591772,66.1979677 L20.3591772,78.892129 L20.3908228,79.0833871 L21.2674051,79.3615806 C27.8813291,81.4243226 33.789557,82.3742903 38.9208861,82.6777742 L38.9208861,78.843129 C38.9208861,70.4404194 44.5379747,63.3211935 52.221519,61.0355806 L52.221519,61.0355806 Z" id="Fill-9" sketch:type="MSShapeGroup"></path>
            <path d="M67.9018987,63.1662903 L57.5126582,63.1662903 C48.8718354,63.1662903 41.8370253,70.1922581 41.8370253,78.8241613 L41.8370253,91.5135806 L41.875,91.7111613 L42.7468354,91.9877742 C50.9968354,94.5563226 58.1613924,95.4209355 64.056962,95.4209355 C75.5791139,95.4209355 82.2531646,92.1363548 82.6677215,91.926129 L83.4841772,91.5135806 L83.5696203,91.5135806 L83.5696203,78.8241613 C83.5759494,70.1875161 76.5427215,63.1662903 67.9018987,63.1662903 L67.9018987,63.1662903 Z" id="Fill-10" sketch:type="MSShapeGroup"></path>
            <path d="M20.8670886,37.7953548 C22.7199367,37.7953548 24.4699367,37.3701613 26.039557,36.6351613 C26.5348101,31.8869032 29.2405063,27.7930323 33.0981013,25.3793871 C32.9984177,18.7106452 27.5664557,13.3332903 20.8670886,13.3332903 C14.1044304,13.3332903 8.62816456,18.8102258 8.62816456,25.5643226 C8.62816456,32.3184194 14.1044304,37.7953548 20.8670886,37.7953548 L20.8670886,37.7953548 Z" id="Fill-11" sketch:type="MSShapeGroup"></path>
            <path d="M30.6376582,49.1254194 C27.8512658,46.458871 26.0949367,42.7475161 25.9841772,38.6236129 L15.6740506,38.6236129 C7.02689873,38.6236129 0,45.6495806 0,54.2814839 L0,66.9756452 L0.0870253165,66.9756452 L0.901898734,67.3897742 C1.29113924,67.5873548 7.15664557,70.464129 17.3370253,70.8419032 L17.3370253,66.9329677 C17.3370253,58.5239355 22.9556962,51.4047097 30.6376582,49.1254194 L30.6376582,49.1254194 Z" id="Fill-12" sketch:type="MSShapeGroup"></path>
            <path d="M35.1867089,24.039 C36.6518987,23.4462581 38.8955696,22.7175806 41.0348101,22.7175806 C43.5253165,22.7175806 45.960443,23.3609032 48.1297468,24.5764194 C48.6123418,24.1006452 49.056962,23.5821935 49.4588608,23.032129 C47.3939873,20.3229032 46.2689873,17.0067097 46.2689873,13.5925161 C46.2689873,11.2958387 46.7816456,9.01022581 47.7658228,6.94274194 C45.5332278,4.929 42.6851266,3.83045161 39.6613924,3.83045161 C34.1613924,3.83045161 29.3702532,7.55445161 27.9683544,12.7895484 C32.0775316,15.1794839 34.7547468,19.3587097 35.1867089,24.039 L35.1867089,24.039 Z" id="Fill-13" sketch:type="MSShapeGroup"></path>
            <path d="M74.8306962,22.3413871 C75.2563291,23.0147419 75.7515823,23.6501613 76.3196203,24.2429032 C78.3291139,23.2423548 80.5411392,22.7175806 82.7674051,22.7175806 C84.9541139,22.7175806 87.0506329,23.2739677 88.4287975,23.7434194 C88.8544304,18.6679677 91.9272152,14.1915806 96.5253165,11.9186129 C94.8386076,7.10870968 90.2768987,3.82412903 85.1091772,3.82412903 C81.7658228,3.82412903 78.6012658,5.19454839 76.3132911,7.60977419 C77.1170886,9.52393548 77.5253165,11.5297742 77.5253165,13.5925161 C77.5253165,16.7411613 76.5917722,19.7475484 74.8306962,22.3413871 L74.8306962,22.3413871 Z" id="Fill-14" sketch:type="MSShapeGroup"></path>
        </g>
    </g>
</svg>