<?xml version="1.0" encoding="UTF-8" standalone="no"?>
<svg width="120px" height="99px" viewBox="0 0 120 99" version="1.1" xmlns="http://www.w3.org/2000/svg" xmlns:xlink="http://www.w3.org/1999/xlink" xmlns:sketch="http://www.bohemiancoding.com/sketch/ns">
    <!-- Generator: Sketch 3.5.2 (25235) - http://www.bohemiancoding.com/sketch -->
    <title>employeereferral</title>
    <desc>Created with Sketch.</desc>
    <defs></defs>
    <g id="Page-1" stroke="none" stroke-width="1" fill="none" fill-rule="evenodd" sketch:type="MSPage">
        <g id="Group-3" sketch:type="MSLayerGroup" fill="#323A45">
            <path d="M84.5751021,19.0415019 C81.0323326,9.51938759 72.5701293,5.66643739 62.854466,4.81642699 C53.779263,4.02244961 45.3585196,5.66768954 40.0667069,13.3662867 L43.7396883,15.719007 L32.1124549,22.3828236 L32.5168286,8.52433452 L36.3079873,10.9560372 C42.4966894,1.7489679 52.5091182,-0.742456016 63.2585264,0.197995336 C74.6472963,1.1943836 84.5354572,6.15869079 88.6875638,17.3198916 C89.1321415,18.5140885 88.5683048,19.8597305 87.4332282,20.3328394 C86.2977476,20.8105667 85.0204879,20.226462 84.5751021,19.0415019 Z" id="Path" sketch:type="MSShapeGroup"></path>
            <path d="M36.4432775,79.7614756 C39.986047,89.2835899 48.4482503,93.1365401 58.1639136,93.9865505 C67.2391165,94.7805279 75.65986,93.135288 80.9516727,85.4366908 L77.2786913,83.0839706 L88.9059246,76.4201539 L88.501551,90.278643 L84.7103923,87.8469403 C78.5216902,97.0540096 68.5092613,99.5454335 57.7598532,98.6049822 C46.3710832,97.6085939 36.4829224,92.6442867 32.3308158,81.483086 C31.8862381,80.288889 32.4500748,78.9432471 33.5851514,78.4701382 C34.720632,77.9924108 35.9978917,78.5765155 36.4432775,79.7614756 Z" id="Path-Copy-3" sketch:type="MSShapeGroup"></path>
            <path d="M81.5454774,66.377978 L81.5454774,71.8493006 L119.934335,71.8493006 L119.934335,66.377978 C119.934335,58.8217525 113.794315,52.6943663 106.22251,52.6943663 L95.2590747,52.6943663 C87.6784093,52.6943663 81.5454774,58.8217525 81.5454774,66.377978 L81.5454774,66.377978 Z" id="Path-Copy-2" sketch:type="MSShapeGroup"></path>
            <path d="M0,66.7700314 L0,72.241354 L38.3888579,72.241354 L38.3888579,66.7700314 C38.3888579,59.2138059 32.2488379,53.0864198 24.6770326,53.0864198 L13.7135973,53.0864198 C6.13293193,53.0864198 0,59.2138059 0,66.7700314 L0,66.7700314 Z" id="Path" sketch:type="MSShapeGroup"></path>
            <path d="M100.975584,49.0267764 C94.1586555,49.0267764 88.6335235,43.5130131 88.6335235,36.7171847 C88.6335235,29.9125146 94.1586555,24.4005196 100.975584,24.4005196 C107.794284,24.4005196 113.317644,29.9125146 113.317644,36.7171847 C113.317644,43.5130131 107.794284,49.0267764 100.975584,49.0267764 L100.975584,49.0267764 Z" id="Path-Copy" sketch:type="MSShapeGroup"></path>
            <path d="M19.7647408,50.5521828 C12.9478124,50.5521828 7.42268041,45.0384194 7.42268041,38.2425911 C7.42268041,31.4379209 12.9478124,25.9259259 19.7647408,25.9259259 C26.5834411,25.9259259 32.1068011,31.4379209 32.1068011,38.2425911 C32.1068011,45.0384194 26.5834411,50.5521828 19.7647408,50.5521828 L19.7647408,50.5521828 Z" id="Path" sketch:type="MSShapeGroup"></path>
        </g>
    </g>
</svg>