<?xml version="1.0" encoding="UTF-8" standalone="no"?>
<svg width="134px" height="98px" viewBox="0 0 134 98" version="1.1" xmlns="http://www.w3.org/2000/svg" xmlns:xlink="http://www.w3.org/1999/xlink" xmlns:sketch="http://www.bohemiancoding.com/sketch/ns">
    <!-- Generator: Sketch 3.5.2 (25235) - http://www.bohemiancoding.com/sketch -->
    <title>jobboards</title>
    <desc>Created with Sketch.</desc>
    <defs></defs>
    <g id="Page-1" stroke="none" stroke-width="1" fill="none" fill-rule="evenodd" sketch:type="MSPage">
        <g id="Group" sketch:type="MSLayerGroup">
            <path d="M100.898435,42.0248311 C101.263558,42.0083363 101.630805,42 102,42 C104.362527,42 106.645324,42.3413644 108.801758,42.9774596 L108.801758,5.80598601 C108.801758,2.77826573 106.442616,0.323468531 103.532876,0.323468531 L5.26888218,0.323468531 C2.35914199,0.323468531 0,2.77826573 0,5.80598601 L0,69.9510979 C0,72.9788182 2.35914199,75.4336154 5.26888218,75.4336154 L42.0186767,75.4336154 L42.0186767,87.8576853 L27.7182719,87.8576853 C25.031142,87.8576853 22.8442266,90.1319021 22.8442266,92.9293566 C22.8442266,95.7254406 25.031142,97.9996573 27.7182719,97.9996573 L81.0838157,97.9996573 C83.7709456,97.9996573 85.9575317,95.7254406 85.9575317,92.9293566 C85.9575317,90.1319021 83.7709456,87.8576853 81.0838157,87.8576853 L66.7834109,87.8576853 L66.7834109,75.4336154 L79.9250646,75.4336154 C78.8360751,72.8886524 78.174317,70.117336 78.0299646,67.2098404 L7.90332326,67.2098392 L7.90332326,8.54724476 L100.898435,8.54724476 L100.898435,42.0248311 Z" id="Fill-1" fill="#323A45" sketch:type="MSShapeGroup"></path>
            <path d="M16.5963202,32.6538741 L92.2054381,32.6538741 C92.9322145,32.6538741 93.5226586,32.0394895 93.5226586,31.2832448 L93.5226586,16.2035804 C93.5226586,15.4473357 92.9322145,14.832951 92.2054381,14.832951 L16.5963202,14.832951 C15.8695438,14.832951 15.2790997,15.4473357 15.2790997,16.2035804 L15.2790997,31.2832448 C15.2790997,32.0394895 15.8695438,32.6538741 16.5963202,32.6538741 L16.5963202,32.6538741 Z" id="Fill-2" fill="#323A45" sketch:type="MSShapeGroup"></path>
            <path d="M92.2054381,37.8310839 L75.155006,37.8310839 C74.5787221,37.8310839 74.1104502,38.316972 74.1104502,38.917993 L74.1104502,59.8427063 C74.1104502,60.4437273 74.5787221,60.9296154 75.155006,60.9296154 L92.2054381,60.9296154 C92.7817221,60.9296154 93.249994,60.4437273 93.249994,59.8427063 L93.249994,38.917993 C93.249994,38.316972 92.7817221,37.8310839 92.2054381,37.8310839 L92.2054381,37.8310839 Z" id="Fill-3" fill="#323A45" sketch:type="MSShapeGroup"></path>
            <path d="M66.3306163,37.8310839 L16.5963202,37.8310839 C16.0200363,37.8310839 15.5520937,38.316972 15.5520937,38.917993 L15.5520937,59.8427063 C15.5520937,60.4437273 16.0190483,60.9296154 16.5963202,60.9296154 L66.3306163,60.9296154 C66.9069003,60.9296154 67.3751722,60.4437273 67.3751722,59.8427063 L67.3751722,38.917993 C67.3751722,38.316972 66.9069003,37.8310839 66.3306163,37.8310839 L66.3306163,37.8310839 Z M19.0700604,40.5668601 L63.8555589,40.5668601 L63.8555589,58.1938392 L19.0700604,58.1938392 L19.0700604,40.5668601 Z" id="Fill-4" fill="#323A45" sketch:type="MSShapeGroup"></path>
            <path d="M132.525559,89.6692675 L117.909425,75.0998408 C121.849521,68.1966561 120.870447,59.2402866 114.970447,53.3590764 C107.894888,46.306051 96.3821086,46.306051 89.3065495,53.3590764 C82.2309904,60.4121019 82.2309904,71.8883758 89.3065495,78.9414013 C95.2063898,84.8224522 104.191374,85.7984076 111.116613,81.8710191 L125.731949,96.4404459 C127.605272,98.3078025 130.652875,98.3071656 132.525559,96.4404459 C134.398722,94.5738854 134.398722,91.535828 132.525559,89.6692675 L132.525559,89.6692675 Z" id="Fill-1" fill="#323A45" sketch:type="MSShapeGroup"></path>
            <path d="M111.355591,75.3380573 C106.273163,80.4042994 98.0038339,80.4042994 92.9214058,75.3380573 C87.8388179,70.2716561 87.8388179,62.0288217 92.9214058,56.9624204 C98.0038339,51.8961783 106.273163,51.8961783 111.355591,56.9624204 C116.438019,62.0288217 116.438019,70.2716561 111.355591,75.3380573 L111.355591,75.3380573 Z" id="Path" fill="#FFFFFF" sketch:type="MSShapeGroup"></path>
        </g>
    </g>
</svg>