<?xml version="1.0" encoding="UTF-8" standalone="no"?>
<svg width="53px" height="54px" viewBox="0 0 53 54" version="1.1" xmlns="http://www.w3.org/2000/svg" xmlns:xlink="http://www.w3.org/1999/xlink" xmlns:sketch="http://www.bohemiancoding.com/sketch/ns">
    <!-- Generator: Sketch 3.5.2 (25235) - http://www.bohemiancoding.com/sketch -->
    <title>manager-w</title>
    <desc>Created with Sketch.</desc>
    <defs></defs>
    <g id="Page-1" stroke="none" stroke-width="1" fill="none" fill-rule="evenodd" sketch:type="MSPage">
        <g id="manager" sketch:type="MSLayerGroup" fill="#FFFFFF">
            <g id="Layer_1" sketch:type="MSShapeGroup">
                <path d="M36.8,11.1 C36.8,16.8 32.1,21.5 26.4,21.5 C20.7,21.5 16,16.8 16,11.1 C16,5.4 20.7,0.7 26.4,0.7 C32.1,0.7 36.8,5.4 36.8,11.1 L36.8,11.1 L36.8,11.1 Z M26.4,28.7 C27,28.7 27.8,28.7 28.3,28.2 C28.8,27.7 29.6,26.4 29.6,25.5 C29.6,24.4 27.6,24.2 26.4,24.2 C25.2,24.2 23.2,24.4 23.2,25.5 C23.2,26.5 24,27.7 24.5,28.2 C25,28.7 25.8,28.7 26.4,28.7 L26.4,28.7 L26.4,28.7 Z M52.8,54 L44,54 L41.2,42 L40.4,54 L12.4,54 L11.6,42 L8.8,54 L0,54 L5,31.4 C5.6,28.8 7.7,26.8 10.3,26.4 L19.5,25 L24.2,35.7 L24.7,30.3 C24.7,30.1 24.9,30 25,30 L27.6,30 C27.8,30 27.9,30.2 27.9,30.3 L28.5,35.5 L33.1,25 L42.3,26.4 C44.9,26.8 47,28.8 47.6,31.4 L52.8,54 L52.8,54 Z M38.4,39 L36.8,35.8 L32,39 L38.4,39 L38.4,39 Z" id="XMLID_5011_"></path>
            </g>
        </g>
    </g>
</svg>