<?xml version="1.0" encoding="UTF-8" standalone="no"?>
<svg width="48px" height="45px" viewBox="0 0 48 45" version="1.1" xmlns="http://www.w3.org/2000/svg" xmlns:xlink="http://www.w3.org/1999/xlink" xmlns:sketch="http://www.bohemiancoding.com/sketch/ns">
    <!-- Generator: Sketch 3.5.2 (25235) - http://www.bohemiancoding.com/sketch -->
    <title>piechart-w</title>
    <desc>Created with Sketch.</desc>
    <defs></defs>
    <g id="Page-1" stroke="none" stroke-width="1" fill="none" fill-rule="evenodd" sketch:type="MSPage">
        <g id="piechart" sketch:type="MSLayerGroup" fill="#FFFFFF">
            <g id="Layer_1" sketch:type="MSShapeGroup">
                <g id="XMLID_5028_">
                    <g id="XMLID_5030_">
                        <path d="M43.7,22 C44.1,22 44.5,22.5 44.5,22.9 C44.1,34.7 34.4,44.1 22.5,44.1 C9.5,44.1 -0.9,32.8 0.7,19.5 C1.9,9.4 10.2,1.3 20.4,0.3 C25.3,-0.2 29.8,1 33.7,3.2 C34,3.5 34.1,4 33.9,4.3 L24.1,19.6 C23.4,20.7 24.2,22 25.5,22 L43.7,22 L43.7,22 Z M37.1,2.8 L26.5,19.6 C26.2,20.1 26.5,21 27.2,21 L46.9,21 C47.3,21 47.7,20.4 47.7,20 C47.4,12.8 43.7,6.4 38.2,2.6 C37.9,2.4 37.3,2.4 37.1,2.8 L37.1,2.8 L37.1,2.8 Z" id="XMLID_5033_"></path>
                    </g>
                </g>
            </g>
        </g>
    </g>
</svg>